<svg height="512" viewBox="0 0 256 256" width="512" xmlns="http://www.w3.org/2000/svg"><path d="m251.69 103.235v132.74h-247.38v-132.74l41.2-28.07v55.935l79.69 53.89a5.012 5.012 0 0 0 5.6 0l79.69-53.89v-55.935z" fill="#fc5d3d"/><path d="m158.09 39.475h-60.18l27.27-18.575a5.005 5.005 0 0 1 5.64 0z" fill="#fc5d3d"/><path d="m205.49 39.475h-154.98a5 5 0 0 0 -5 5v86.625l79.69 53.89a5.012 5.012 0 0 0 5.6 0l79.69-53.89v-86.625a5 5 0 0 0 -5-5z" fill="#efefef"/><circle cx="128" cy="124.994" fill="#13bf6d" r="21.759"/><path d="m235 224.078h-168.146a2.5 2.5 0 0 1 0-5h165.646v-69.353a2.5 2.5 0 0 1 5 0v71.853a2.5 2.5 0 0 1 -2.5 2.5zm-178.146 0h-6.854a2.5 2.5 0 1 1 0-5h6.854a2.5 2.5 0 1 1 0 5z" fill="#ffcbc2"/><path d="m197.49 121.975a2.5 2.5 0 0 1 -2.5-2.5v-8.158a2.5 2.5 0 0 1 5 0v8.158a2.5 2.5 0 0 1 -2.5 2.5zm0-18.158a2.5 2.5 0 0 1 -2.5-2.5v-46.342h-19.657a2.5 2.5 0 0 1 0-5h22.157a2.5 2.5 0 0 1 2.5 2.5v48.842a2.5 2.5 0 0 1 -2.5 2.5z" fill="#fff"/><path d="m181.069 41.97a2.5 2.5 0 1 0 -2.5-2.491 2.5 2.5 0 0 0 2.5 2.491z"/><path d="m151.667 62.475a2.5 2.5 0 0 0 0-5h-47.334a2.5 2.5 0 0 0 0 5z"/><path d="m171.832 74.142a2.5 2.5 0 0 0 -2.5-2.5h-82.666a2.5 2.5 0 0 0 0 5h82.666a2.5 2.5 0 0 0 2.5-2.5z"/><path d="m139.68 140.3a2.5 2.5 0 1 0 3.509.47 2.568 2.568 0 0 0 -3.509-.47z"/><path d="m155.4 101.468a2.5 2.5 0 0 0 -3.535 0l-6.557 6.556a24.251 24.251 0 1 0 -17.308 41.226 24.812 24.812 0 0 0 4.64-.44 2.5 2.5 0 0 0 -.951-4.911 19.7 19.7 0 0 1 -3.689.351 19.261 19.261 0 1 1 13.763-32.676l-15.194 15.194-5.461-7.167a2.5 2.5 0 1 0 -3.976 3.029l7.194 9.442a2.5 2.5 0 0 0 3.756.253l16.708-16.707a19.158 19.158 0 0 1 .48 17.912 2.49 2.49 0 0 0 1.129 3.35 2.542 2.542 0 0 0 3.351-1.13 24.363 24.363 0 0 0 2.51-10.76 24.085 24.085 0 0 0 -3.815-13.028l6.955-6.962a2.5 2.5 0 0 0 0-3.532z"/><path d="m254.189 103.247a2.567 2.567 0 0 0 -1.089-2.077l-40.11-27.327v-29.373a7.521 7.521 0 0 0 -7.5-7.5h-14.421a2.5 2.5 0 0 0 0 5.009s.011 0 .011-.009h14.41a2.52 2.52 0 0 1 2.5 2.5v85.3c-20.485 13.852-78.626 53.162-78.626 53.162a2.522 2.522 0 0 1 -2.764-.021c-61.429-41.541-25.587-17.3-78.59-53.141v-85.3a2.513 2.513 0 0 1 2.5-2.5h120.559a2.5 2.5 0 1 0 0-4.991h-12.2l-26.637-18.15a7.464 7.464 0 0 0 -8.457 0l-26.634 18.145h-46.631a7.521 7.521 0 0 0 -7.5 7.5v29.368l-40.11 27.328a2.558 2.558 0 0 0 -1.089 2.067v32.853a2.5 2.5 0 0 0 5 0v-28.146c59.6 40.306 13.293 8.992 79.66 53.87l-79.66 68.7v-74.424a2.5 2.5 0 0 0 -5 0v79.88a2.514 2.514 0 0 0 2.5 2.5h247.379a2.513 2.513 0 0 0 2.5-2.5zm-127.601-80.287a2.525 2.525 0 0 1 2.825 0l20.567 14.015h-43.96zm42.941 138.854 79.66-53.869v122.568zm43.461-81.924 34.247 23.339-34.247 23.158zm-169.98 46.5-34.247-23.161 34.247-23.339zm47.752 38.33c30.79 20.821 17.624 11.916 33.038 22.343a7.5 7.5 0 0 0 8.4 0c25.06-16.95 18.437-12.471 33.037-22.344l79.727 68.756h-233.928z"/><circle cx="4.31" cy="146.09" r="2.5"/></svg>